<svg width="33" height="33" viewBox="0 0 33 33" fill="none" xmlns="http://www.w3.org/2000/svg">
<path d="M15.3863 24.75H17.8612V17.9025H24.75V15.4275H17.8612V8.25H15.3863V15.4275H8.25V17.9025H15.3863V24.75ZM16.511 33C14.2358 33 12.0977 32.5669 10.0966 31.7006C8.09553 30.8344 6.34563 29.6519 4.84688 28.1531C3.34813 26.6544 2.16563 24.9034 1.29938 22.9003C0.433125 20.8972 0 18.7569 0 16.4794C0 14.2019 0.433125 12.0615 1.29938 10.0584C2.16563 8.05531 3.34813 6.31125 4.84688 4.82625C6.34563 3.34125 8.09656 2.16563 10.0997 1.29938C12.1028 0.433125 14.2431 0 16.5206 0C18.7981 0 20.9385 0.433125 22.9416 1.29938C24.9447 2.16563 26.6888 3.34125 28.1738 4.82625C29.6588 6.31125 30.8344 8.0575 31.7006 10.065C32.5669 12.0725 33 14.2138 33 16.489C33 18.7642 32.5669 20.9023 31.7006 22.9034C30.8344 24.9045 29.6588 26.6518 28.1738 28.1455C26.6888 29.6392 24.9425 30.8217 22.935 31.693C20.9275 32.5643 18.7862 33 16.511 33ZM16.5206 30.525C20.4119 30.525 23.7188 29.1569 26.4413 26.4206C29.1638 23.6844 30.525 20.3706 30.525 16.4794C30.525 12.5881 29.1663 9.28125 26.449 6.55875C23.7316 3.83625 20.4153 2.475 16.5 2.475C12.6225 2.475 9.31563 3.83367 6.57938 6.551C3.84313 9.26835 2.475 12.5847 2.475 16.5C2.475 20.3775 3.84313 23.6844 6.57938 26.4206C9.31563 29.1569 12.6294 30.525 16.5206 30.525Z" fill="#33907C"/>
</svg>
